<?xml version="1.0" encoding="UTF-8" standalone="no"?>
<svg
   xmlns:dc="http://purl.org/dc/elements/1.1/"
   xmlns:cc="http://creativecommons.org/ns#"
   xmlns:rdf="http://www.w3.org/1999/02/22-rdf-syntax-ns#"
   xmlns:svg="http://www.w3.org/2000/svg"
   xmlns="http://www.w3.org/2000/svg"
   id="svg8"
   version="1.1"
   viewBox="0 0 250.47223 178.48575"
   height="178.48575mm"
   width="250.47223mm">
  <title
     id="title830">HBO Nordic</title>
  <defs
     id="defs2" />
  <metadata
     id="metadata5">
    <rdf:RDF>
      <cc:Work
         rdf:about="">
        <dc:format>image/svg+xml</dc:format>
        <dc:type
           rdf:resource="http://purl.org/dc/dcmitype/StillImage" />
        <dc:title>HBO Nordic</dc:title>
        <dc:creator>
          <cc:Agent>
            <dc:title>HBO Nordic</dc:title>
          </cc:Agent>
        </dc:creator>
        <dc:language>English</dc:language>
        <dc:source>HBO Nordic</dc:source>
        <dc:publisher>
          <cc:Agent>
            <dc:title>HBO Nordic</dc:title>
          </cc:Agent>
        </dc:publisher>
        <cc:license
           rdf:resource="PD-textlogo" />
      </cc:Work>
    </rdf:RDF>
  </metadata>
  <g
     transform="translate(-44.097221,-23.636109)"
     style="display:inline"
     id="layer2">
    <path
       id="path827"
       d="m 62.114266,258.4131 c -3.177255,-1.02907 -5.146086,-2.17414 -7.609833,-4.42586 -2.51242,-2.29622 -4.560909,-5.49606 -5.766093,-9.00694 -0.845919,-2.46429 -0.968788,-3.35912 -0.968788,-7.05555 0,-3.6914 0.122979,-4.58966 0.960643,-7.0168 1.240476,-3.59429 2.367766,-5.48417 4.846969,-8.12583 3.716856,-3.96042 8.473584,-6.13765 14.108094,-6.45749 12.717318,-0.72191 22.546814,8.61797 22.546814,21.42373 0,6.25321 -2.016192,11.20057 -6.338129,15.55259 -4.36941,4.39982 -8.368492,5.96636 -15.181315,5.94688 -3.26657,-0.009 -4.552064,-0.17196 -6.598362,-0.83473 z m 11.008084,-3.85888 c 5.723996,-1.53131 10.079785,-5.98235 11.658374,-11.91333 0.646381,-2.42854 0.646381,-7.00374 0,-9.43228 -1.759482,-6.61063 -6.885693,-11.33332 -13.484563,-12.4231 -10.898565,-1.79986 -20.292035,8.19289 -18.51563,19.69688 1.066176,6.90454 6.10948,12.70616 12.317589,14.16968 2.02347,0.47702 6.059318,0.42781 8.02423,-0.0979 z m 152.62004,4.17642 c -4.91068,-1.37098 -9.56167,-4.95685 -12.13563,-9.35647 -3.72072,-6.35974 -4.04584,-14.59964 -0.84102,-21.31479 2.43416,-5.10037 7.10831,-9.21257 12.34197,-10.85817 3.6218,-1.13878 10.25159,-1.13812 13.88206,0.001 2.46964,0.77516 7.01677,3.48978 8.39318,5.0107 0.675,0.74587 0.67151,0.75477 -0.92072,2.347 l -1.59829,1.59829 -2.69781,-1.93559 c -4.37312,-3.13757 -8.93457,-4.2468 -13.51326,-3.28608 -3.43636,0.72103 -5.92885,2.06782 -8.28706,4.47785 -6.40587,6.54662 -6.55273,17.62981 -0.3237,24.42888 1.02849,1.12262 2.56892,2.45072 3.42316,2.95134 6.42365,3.76451 14.79174,2.68128 20.31428,-2.62965 l 1.32386,-1.27313 1.58649,1.55702 1.58648,1.55701 -1.32023,1.35205 c -1.79634,1.83962 -5.15176,3.975 -7.6907,4.89435 -2.7844,1.00823 -10.63046,1.28557 -13.52306,0.478 z M 1.2144825,258.67984 c -0.129353,-0.12935 -0.23518638,-9.58223 -0.23518638,-21.0064 v -20.77121 l 2.36299018,0.10432 2.3629866,0.10431 12.8946521,16.47021 c 7.092057,9.05861 13.013711,16.48017 13.159232,16.49236 0.14552,0.0122 0.264583,-7.4391 0.264583,-16.5584 v -16.58056 h 2.295853 2.295853 l -0.09099,20.90208 -0.09099,20.90209 -1.817462,0.10543 -1.817461,0.10543 L 19.270171,241.77859 5.7418,224.60768 5.650251,241.76136 5.558698,258.91503 H 3.5041795 c -1.1299824,0 -2.1603475,-0.10584 -2.289697,-0.23519 z M 101.52096,237.92475 v -20.99028 l 10.31875,0.005 c 10.92692,0.006 13.18932,0.25357 16.16659,1.77245 4.87377,2.48642 7.40144,7.70044 6.34246,13.08311 -0.92579,4.70573 -3.36713,7.36184 -8.39905,9.13794 l -2.5828,0.91165 6.36314,8.40005 c 3.49972,4.62002 6.36313,8.46082 6.36313,8.53509 0,0.0743 -1.30969,0.13053 -2.91041,0.125 l -2.91042,-0.0101 -6.14816,-8.28848 -6.14817,-8.28848 -5.84628,0.0964 -5.84628,0.0965 -0.0947,8.20208 -0.0947,8.20209 h -2.28656 -2.28655 z m 23.45972,-0.93724 c 3.26897,-1.73697 4.76868,-4.08046 4.75476,-7.4299 -0.0148,-3.55884 -2.08358,-6.3036 -5.6927,-7.5528 -1.61402,-0.55865 -3.02275,-0.6528 -9.82178,-0.6564 l -7.9375,-0.004 -0.0946,8.40124 -0.0946,8.40123 8.56129,-0.11095 c 8.48976,-0.11004 8.57604,-0.1188 10.32519,-1.04821 z m 20.99028,0.98163 v -21.03467 h 8.43563 c 10.06735,0 12.59902,0.37543 16.96437,2.51567 15.27733,7.49016 14.92581,30.1285 -0.57585,37.08523 -4.17875,1.87531 -5.64656,2.09091 -15.56373,2.28614 l -9.26042,0.1823 z m 21.11923,15.3149 c 6.04478,-2.18391 10.0722,-7.58496 10.53232,-14.12457 0.49608,-7.0507 -2.97144,-13.12744 -9.16903,-16.06854 -3.18874,-1.51323 -6.54555,-1.99293 -12.95752,-1.85166 l -4.7625,0.10492 -0.0917,16.52377 -0.0917,16.52377 7.14726,-0.14819 c 6.34604,-0.13157 7.399,-0.23913 9.39288,-0.9595 z m 27.21132,-15.35929 v -20.99028 h 2.29306 2.29306 v 20.99028 20.99028 h -2.29306 -2.29306 z M 0.62651835,200.00114 v -1.05833 H 124.80429 248.98207 v 1.05833 1.05833 H 124.80429 0.62651835 Z M 193.41957,183.53501 c -0.58208,-0.0729 -2.62686,-0.45781 -4.54395,-0.85526 -9.66315,-2.00331 -17.48552,-6.27552 -24.77166,-13.52911 -4.15252,-4.13396 -5.98615,-6.43646 -8.66584,-10.88175 l -1.65793,-2.75031 -0.23412,1.69197 c -1.78115,12.87276 -12.06254,23.40834 -25.0545,25.67395 -2.53744,0.44249 -7.06941,0.53608 -25.95849,0.53608 H 79.648739 V 132.78382 82.147063 l 25.488191,0.104003 25.4882,0.104004 2.46944,0.820942 c 8.59464,2.857207 15.90916,10.037548 18.9931,18.644688 0.50008,1.39569 1.00807,3.38006 1.12888,4.40972 0.35435,3.02019 0.45145,3.02579 2.10663,0.12132 3.78604,-6.643626 9.57132,-12.871293 15.90678,-17.123123 8.94657,-6.004182 17.24643,-8.466363 28.53961,-8.466363 6.8282,0 10.76454,0.591222 16.44695,2.470262 15.67385,5.182982 27.22943,16.739306 32.41301,32.415124 1.86261,5.63276 2.46921,9.62908 2.46921,16.26739 0,6.63831 -0.6066,10.63463 -2.46921,16.26739 -2.69018,8.13546 -6.49125,14.26166 -12.67823,20.43358 -10.25624,10.23129 -22.50363,15.26421 -36.75617,15.10451 -2.59447,-0.0291 -5.19348,-0.11255 -5.77556,-0.1855 z m -71.30778,-24.23747 c 6.05902,-2.53162 6.42879,-12.75489 0.56946,-15.7441 -1.25124,-0.63833 -2.08483,-0.7023 -9.15179,-0.7023 h -7.77517 v 8.46667 8.46666 h 7.59606 c 5.66116,0 7.8929,-0.12403 8.76144,-0.48693 z m 83.23258,-2.18866 c 3.24815,-0.71501 8.3395,-3.17759 10.82937,-5.23794 4.08622,-3.38132 7.3638,-8.49651 8.71806,-13.60591 0.74927,-2.82687 0.82375,-9.23446 0.13943,-11.99444 -2.16641,-8.73746 -8.61544,-15.76167 -17.17466,-18.70648 -10.66556,-3.66949 -23.02534,0.72559 -29.42746,10.46425 -8.40992,12.79287 -3.67228,30.04123 10.15277,36.96322 5.00376,2.50531 11.3553,3.30758 16.76249,2.1173 z m -8.49359,-5.12523 c -7.82643,-1.16425 -14.44457,-7.09624 -16.48917,-14.77962 -0.67318,-2.52975 -0.66551,-7.77241 0.0152,-10.38583 1.66288,-6.38422 6.53054,-11.61094 13.06669,-14.03055 3.09101,-1.14425 9.59225,-1.13874 12.91964,0.0109 4.61425,1.59434 8.4798,4.74825 10.98422,8.96207 2.06714,3.47807 2.53337,5.42826 2.51192,10.50713 -0.0165,3.90785 -0.12473,4.67973 -0.95101,6.78217 -3.56641,9.07459 -12.55785,14.34683 -22.05749,12.93368 z m -48.54606,-19.29757 v -6.28451 l -2.31341,1.75678 c -1.27237,0.96623 -3.41191,2.2676 -4.75453,2.89194 -2.40178,1.11686 -2.42346,1.13904 -1.34534,1.37583 1.46812,0.32245 5.73468,3.35522 7.19631,5.1153 0.64694,0.77905 1.18542,1.41931 1.19662,1.42281 0.0112,0.004 0.0204,-2.82167 0.0204,-6.27815 z m -26.08103,-11.37683 c 1.49091,-0.5633 2.9245,-2.06307 3.8565,-4.0345 1.85072,-3.9148 0.67057,-8.95204 -2.64342,-11.28286 l -1.51331,-1.06436 -7.90819,-0.10695 -7.9082,-0.10696 v 8.48543 8.48543 h 7.56176 c 4.48504,0 7.96583,-0.15267 8.55486,-0.37523 z M 0.62651835,132.79697 V 82.173365 H 14.737629 28.84874 v 18.873615 18.87361 h 8.819444 8.819445 V 101.04698 82.173365 h 13.758333 13.758333 v 50.623605 50.62361 H 60.245962 46.487629 V 163.84142 144.26225 H 37.668184 28.84874 v 19.57917 19.57916 H 14.737629 0.62651835 Z M 243.11433,92.484269 c -2.96872,-2.404751 -1.45786,-6.772137 2.33996,-6.764062 1.68706,0.0036 2.31493,0.335796 3.27938,1.735126 1.08524,1.574578 0.5868,3.836051 -1.14652,5.201953 -0.82273,0.648327 -3.59105,0.541245 -4.47282,-0.173017 z m 4.27483,-0.285633 c 1.27488,-0.835334 1.75132,-2.613243 1.11098,-4.14579 -0.60145,-1.439478 -1.47481,-1.998925 -3.12055,-1.998925 -1.46829,0 -2.51841,0.71186 -3.09164,2.095769 -1.26484,3.05359 2.30089,5.883789 5.10121,4.048946 z m -3.34598,-2.969715 c 0,-2.037056 0.034,-2.116667 0.90514,-2.116667 1.89475,0 2.91717,1.32825 1.84653,2.398889 -0.32926,0.329259 -0.32926,0.517407 0,0.846667 0.54914,0.54914 0.53982,0.987777 -0.021,0.987777 -0.24437,0 -0.64259,-0.3175 -0.88493,-0.705555 -0.24235,-0.388056 -0.59803,-0.705556 -0.79042,-0.705556 -0.1924,0 -0.3498,0.3175 -0.3498,0.705556 0,0.388055 -0.15875,0.705555 -0.35278,0.705555 -0.19599,0 -0.35278,-0.940741 -0.35278,-2.116666 z m 2.2312,-0.232125 c 0.31794,-0.317945 -0.44135,-1.178986 -1.03967,-1.178986 -0.26729,0 -0.48597,0.3175 -0.48597,0.705555 0,0.686365 1.00182,0.997248 1.52564,0.473431 z"
       style="fill:#000000;stroke-width:0.35277778"
       transform="translate(43.470703,-57.126145)" />
  </g>
</svg>
